<svg width="28" height="28" viewBox="0 0 28 28" fill="none" xmlns="http://www.w3.org/2000/svg">
<g clip-path="url(#clip0_1_154)">
<path d="M0.984375 0.5H2.44922C2.88242 0.500159 3.34367 0.726047 3.7373 1.16895C4.08001 1.55456 4.34928 2.08385 4.47559 2.69043L4.52148 2.95508L4.72168 4.45898L4.7793 4.89355H13.3906V0.820312C13.3906 0.643442 13.5341 0.500132 13.7109 0.5H18.1045C18.2814 0.500082 18.4248 0.643411 18.4248 0.820312V4.89355H25.1475C25.749 4.8936 26.2833 5.10015 26.6885 5.47266L26.8545 5.6416C27.2216 6.06079 27.4108 6.59652 27.3916 7.18066L27.3711 7.43359L26.1943 16.2578C26.1183 16.8262 25.8523 17.3714 25.4287 17.8125L25.2373 17.9951C24.7024 18.4631 24.0446 18.7139 23.3896 18.7139H6.62207L6.69727 19.2793L6.86914 20.5664C7.00822 21.6092 7.98689 22.4658 9.03906 22.4658H25.5869C25.7634 22.4661 25.907 22.6096 25.9072 22.7861C25.9072 22.9627 25.7635 23.1062 25.5869 23.1064H22.6172L22.9922 23.8359C23.1696 24.1805 23.2705 24.5701 23.2705 24.9834C23.2703 26.3708 22.1411 27.5 20.7539 27.5C19.3665 27.5 18.2375 26.3708 18.2373 24.9834C18.2373 24.5702 18.3372 24.1804 18.5146 23.8359L18.8906 23.1064H12.9521L13.3271 23.8359C13.5046 24.1804 13.6055 24.5701 13.6055 24.9834C13.6053 26.3707 12.476 27.4999 11.0889 27.5C9.70168 27.5 8.57248 26.3708 8.57227 24.9834C8.57227 24.5496 8.68163 24.1417 8.875 23.7861L9.2002 23.1885L8.53223 23.0566C8.11159 22.9738 7.70353 22.7898 7.34277 22.5127L7.19141 22.3877H7.19043C6.72262 21.978 6.40774 21.4532 6.27832 20.8936L6.23438 20.6514L3.88574 3.04004C3.81381 2.50028 3.61199 2.05405 3.375 1.73438C3.25715 1.57541 3.12376 1.43943 2.98438 1.33789C2.85946 1.24693 2.67032 1.14077 2.44922 1.14062H0.984375C0.807423 1.14062 0.664062 0.997265 0.664062 0.820312C0.664062 0.64336 0.807423 0.5 0.984375 0.5ZM11.0889 23.1064C10.0539 23.1064 9.21289 23.9485 9.21289 24.9834C9.21311 26.0183 10.054 26.8594 11.0889 26.8594C12.1238 26.8593 12.9646 26.0183 12.9648 24.9834C12.9648 23.9485 12.1239 23.1065 11.0889 23.1064ZM20.7539 23.1064C19.719 23.1064 18.8779 23.9485 18.8779 24.9834C18.8781 26.0183 19.7191 26.8594 20.7539 26.8594C21.7889 26.8594 22.6297 26.0184 22.6299 24.9834C22.6299 23.9484 21.789 23.1064 20.7539 23.1064ZM4.94043 6.09961L6.47852 17.6387L6.53613 18.0732H23.3896C24.3762 18.0732 25.2976 17.3196 25.5234 16.3662L25.5596 16.1738L26.7354 7.34863C26.7896 6.94147 26.708 6.53451 26.4795 6.20215L26.3721 6.06445V6.06348C26.0625 5.71009 25.6169 5.53423 25.1475 5.53418H4.86523L4.94043 6.09961ZM14.0312 4.89355H17.7842V1.14062H14.0312V4.89355Z" fill="#515076" stroke="#515076"/>
<path d="M10.9044 5.14526L11.1975 18.2949" stroke="#515076" stroke-width="1.5"/>
<path d="M14.8704 4.66516L15.1635 17.8148" stroke="#515076" stroke-width="1.5"/>
<path d="M18.8365 5.18518L19.1296 18.3349" stroke="#515076" stroke-width="1.5"/>
<path d="M22.8026 5.70508L23.0956 18.8548" stroke="#515076" stroke-width="1.5"/>
</g>
<defs>
<clipPath id="clip0_1_154">
<rect width="28" height="28" fill="white"/>
</clipPath>
</defs>
</svg>
